<svg xmlns="http://www.w3.org/2000/svg" viewBox="0 0 1200 820" role="img" aria-label="Queue barriers and flag poles for UAE events">
  <defs>
    <linearGradient id="floor" x1="0" y1="0" x2="1" y2="1">
      <stop offset="0" stop-color="#f7f8fa"/>
      <stop offset="1" stop-color="#d8dee6"/>
    </linearGradient>
    <linearGradient id="chrome" x1="0" y1="0" x2="1" y2="1">
      <stop offset="0" stop-color="#ffffff"/>
      <stop offset="0.5" stop-color="#9ba9b7"/>
      <stop offset="1" stop-color="#475566"/>
    </linearGradient>
    <filter id="shadow" x="-20%" y="-20%" width="140%" height="150%">
      <feDropShadow dx="0" dy="24" stdDeviation="20" flood-color="#0b1830" flood-opacity="0.16"/>
    </filter>
  </defs>
  <rect width="1200" height="820" rx="42" fill="#f5f7fa"/>
  <path d="M0 0h1200v500H0z" fill="#eef2f6"/>
  <path d="M0 500h1200v320H0z" fill="url(#floor)"/>
  <g opacity="0.2" stroke="#b6c2ce" stroke-width="3">
    <path d="M98 820 520 500M322 820 668 500M566 820 796 500M842 820 944 500M1095 820 1056 500"/>
    <path d="M0 606h1200M0 710h1200"/>
  </g>
  <g transform="translate(182 272)" filter="url(#shadow)">
    <g fill="url(#chrome)" stroke="#4f5f70" stroke-width="5">
      <circle cx="60" cy="352" r="58"/><circle cx="316" cy="352" r="58"/><circle cx="574" cy="352" r="58"/><circle cx="832" cy="352" r="58"/>
      <rect x="42" y="38" width="36" height="314" rx="18"/><rect x="298" y="38" width="36" height="314" rx="18"/><rect x="556" y="38" width="36" height="314" rx="18"/><rect x="814" y="38" width="36" height="314" rx="18"/>
      <circle cx="60" cy="40" r="42"/><circle cx="316" cy="40" r="42"/><circle cx="574" cy="40" r="42"/><circle cx="832" cy="40" r="42"/>
    </g>
    <path d="M96 74h184M354 74h184M612 74h184" stroke="#001b3e" stroke-width="34" stroke-linecap="round"/>
    <path d="M96 74h184M354 74h184M612 74h184" stroke="#d71920" stroke-width="8" stroke-linecap="round" opacity="0.85"/>
  </g>
  <g transform="translate(858 132)">
    <path d="M0 0v442" stroke="url(#chrome)" stroke-width="16" stroke-linecap="round"/>
    <path d="M0 24h170v94H0z" fill="#00843d"/>
    <path d="M0 55h170v32H0z" fill="#fff"/>
    <path d="M0 87h170v31H0z" fill="#000"/>
    <path d="M0 24h45v94H0z" fill="#d71920"/>
    <circle cx="0" cy="0" r="24" fill="url(#chrome)" stroke="#566577" stroke-width="5"/>
  </g>
  <g transform="translate(74 76)">
    <rect width="320" height="76" rx="10" fill="#001b3e"/>
    <text x="24" y="35" fill="#fff" font-family="Arial, sans-serif" font-size="20" font-weight="700">QUEUE &amp; FLAG POLES</text>
    <text x="24" y="59" fill="#f5d36b" font-family="Arial, sans-serif" font-size="15" font-weight="700">Crowd control for events and venues</text>
  </g>
</svg>
