<svg xmlns="http://www.w3.org/2000/svg" viewBox="0 0 1200 820" role="img" aria-label="UAE outdoor and indoor recycling waste bins">
  <defs>
    <linearGradient id="sky" x1="0" y1="0" x2="0" y2="1">
      <stop offset="0" stop-color="#f8fbff"/>
      <stop offset="1" stop-color="#dde6ee"/>
    </linearGradient>
    <linearGradient id="steel" x1="0" y1="0" x2="1" y2="1">
      <stop offset="0" stop-color="#f7fafc"/>
      <stop offset="0.48" stop-color="#bac7d2"/>
      <stop offset="1" stop-color="#687789"/>
    </linearGradient>
    <filter id="shadow" x="-20%" y="-20%" width="140%" height="150%">
      <feDropShadow dx="0" dy="26" stdDeviation="24" flood-color="#0b1830" flood-opacity="0.16"/>
    </filter>
  </defs>
  <rect width="1200" height="820" rx="42" fill="url(#sky)"/>
  <path d="M0 562h1200v258H0z" fill="#e5e1d8"/>
  <path d="M0 562c190-35 337-33 515 4 173 36 382 36 685-31v285H0z" fill="#d7d2c6"/>
  <g opacity="0.18" fill="#001b3e">
    <path d="M806 560V270l40-72 40 72v290zM920 560V332h56v228zM1005 560V296h78v264zM1106 560V376h50v184z"/>
  </g>
  <g transform="translate(126 240)" filter="url(#shadow)">
    <g transform="translate(0 34)">
      <rect x="0" y="0" width="174" height="286" rx="24" fill="#ffffff" stroke="#b9c5d0" stroke-width="6"/>
      <rect x="20" y="34" width="134" height="42" rx="10" fill="#00843d"/>
      <text x="87" y="62" text-anchor="middle" fill="#fff" font-family="Arial, sans-serif" font-size="21" font-weight="700">RECYCLE</text>
      <path d="M34 126h106M34 166h106M34 206h106" stroke="#d7e0e8" stroke-width="5" stroke-linecap="round"/>
    </g>
    <g transform="translate(202 0)">
      <rect x="0" y="0" width="180" height="320" rx="26" fill="#003f7d" stroke="#0d2b4c" stroke-width="6"/>
      <path d="M28 70h124v48H28z" fill="#fff" opacity="0.94"/>
      <text x="90" y="101" text-anchor="middle" fill="#003f7d" font-family="Arial, sans-serif" font-size="21" font-weight="700">PAPER</text>
      <path d="M24 150h132v128H24z" fill="#062a55" opacity="0.52"/>
    </g>
    <g transform="translate(414 0)">
      <rect x="0" y="0" width="180" height="320" rx="26" fill="#d71920" stroke="#8f1117" stroke-width="6"/>
      <path d="M28 70h124v48H28z" fill="#fff" opacity="0.94"/>
      <text x="90" y="101" text-anchor="middle" fill="#d71920" font-family="Arial, sans-serif" font-size="21" font-weight="700">WASTE</text>
      <path d="M24 150h132v128H24z" fill="#7b1014" opacity="0.36"/>
    </g>
    <g transform="translate(646 48)">
      <rect x="0" y="0" width="250" height="272" rx="28" fill="url(#steel)" stroke="#647384" stroke-width="6"/>
      <path d="M36 52h178v54H36z" fill="#ffffff" opacity="0.78"/>
      <text x="125" y="86" text-anchor="middle" fill="#001b3e" font-family="Arial, sans-serif" font-size="22" font-weight="700">STAINLESS BIN</text>
      <path d="M32 136h186v92H32z" fill="#526273" opacity="0.18"/>
    </g>
  </g>
  <g transform="translate(76 72)">
    <rect width="306" height="76" rx="10" fill="#001b3e"/>
    <text x="24" y="35" fill="#fff" font-family="Arial, sans-serif" font-size="20" font-weight="700">WASTE BIN SOLUTIONS</text>
    <text x="24" y="59" fill="#f5d36b" font-family="Arial, sans-serif" font-size="15" font-weight="700">Indoor, outdoor and recycling ranges</text>
  </g>
</svg>
