<svg xmlns="http://www.w3.org/2000/svg" viewBox="0 0 1200 820" role="img" aria-label="Hotel and events equipment for UAE hospitality">
  <defs>
    <linearGradient id="room" x1="0" y1="0" x2="1" y2="1">
      <stop offset="0" stop-color="#fbfaf7"/>
      <stop offset="1" stop-color="#e6e0d4"/>
    </linearGradient>
    <linearGradient id="linen" x1="0" y1="0" x2="0" y2="1">
      <stop offset="0" stop-color="#ffffff"/>
      <stop offset="1" stop-color="#e3e9ef"/>
    </linearGradient>
    <linearGradient id="gold" x1="0" y1="0" x2="1" y2="1">
      <stop offset="0" stop-color="#f9e7a4"/>
      <stop offset="1" stop-color="#b88b28"/>
    </linearGradient>
    <filter id="shadow" x="-20%" y="-20%" width="140%" height="150%">
      <feDropShadow dx="0" dy="28" stdDeviation="24" flood-color="#0b1830" flood-opacity="0.15"/>
    </filter>
  </defs>
  <rect width="1200" height="820" rx="42" fill="url(#room)"/>
  <path d="M0 542h1200v278H0z" fill="#ddd3c2"/>
  <g opacity="0.18" stroke="#b9ad9b" stroke-width="2">
    <path d="M0 630h1200M0 720h1200"/>
    <path d="M150 542v278M330 542v278M510 542v278M690 542v278M870 542v278M1050 542v278"/>
  </g>
  <g transform="translate(114 260)" filter="url(#shadow)">
    <rect x="0" y="150" width="560" height="122" rx="20" fill="#8c6b4f"/>
    <rect x="26" y="44" width="510" height="150" rx="28" fill="url(#linen)" stroke="#c5d0da" stroke-width="5"/>
    <rect x="58" y="0" width="190" height="74" rx="18" fill="#fff" stroke="#d1dae2" stroke-width="4"/>
    <rect x="288" y="0" width="190" height="74" rx="18" fill="#fff" stroke="#d1dae2" stroke-width="4"/>
    <path d="M36 224h496" stroke="#72543d" stroke-width="10" stroke-linecap="round"/>
    <path d="M96 272v98M464 272v98" stroke="#654832" stroke-width="20" stroke-linecap="round"/>
  </g>
  <g transform="translate(746 224)" filter="url(#shadow)">
    <path d="M74 68h170c42 0 76 34 76 76v196H0V144c0-42 33-76 74-76z" fill="#f5f7f9" stroke="#8f9eaa" stroke-width="6"/>
    <path d="M38 138h244M38 202h244M38 266h244" stroke="#c3ced8" stroke-width="5"/>
    <circle cx="74" cy="376" r="32" fill="url(#gold)" stroke="#7b641f" stroke-width="6"/>
    <circle cx="246" cy="376" r="32" fill="url(#gold)" stroke="#7b641f" stroke-width="6"/>
    <path d="M160 0v66M124 0h72" stroke="url(#gold)" stroke-width="16" stroke-linecap="round"/>
  </g>
  <g transform="translate(738 562)">
    <ellipse cx="176" cy="44" rx="150" ry="38" fill="#001b3e" opacity="0.16"/>
    <rect x="70" y="0" width="212" height="34" rx="17" fill="url(#gold)"/>
    <path d="M92 34h168v40H92z" fill="#e9edf2" stroke="#9aa8b5" stroke-width="5"/>
  </g>
  <g transform="translate(76 74)">
    <rect width="336" height="76" rx="10" fill="#001b3e"/>
    <text x="24" y="35" fill="#fff" font-family="Arial, sans-serif" font-size="20" font-weight="700">HOTEL &amp; EVENT SUPPLY</text>
    <text x="24" y="59" fill="#f5d36b" font-family="Arial, sans-serif" font-size="15" font-weight="700">Rollaway beds, trolleys, linen, trays</text>
  </g>
</svg>
