<svg xmlns="http://www.w3.org/2000/svg" viewBox="0 0 1200 820" role="img" aria-label="UAE safety PPE and road barrier equipment">
  <defs>
    <linearGradient id="site" x1="0" y1="0" x2="1" y2="1">
      <stop offset="0" stop-color="#f9fafb"/>
      <stop offset="1" stop-color="#dfe6ee"/>
    </linearGradient>
    <linearGradient id="cone" x1="0" y1="0" x2="1" y2="1">
      <stop offset="0" stop-color="#ffb347"/>
      <stop offset="1" stop-color="#e35d1f"/>
    </linearGradient>
    <filter id="shadow" x="-20%" y="-20%" width="140%" height="150%">
      <feDropShadow dx="0" dy="26" stdDeviation="24" flood-color="#0b1830" flood-opacity="0.16"/>
    </filter>
  </defs>
  <rect width="1200" height="820" rx="42" fill="url(#site)"/>
  <path d="M0 560h1200v260H0z" fill="#d8dde3"/>
  <g opacity="0.2" fill="#001b3e">
    <path d="M860 560V226h86v334zM986 560V304h52v256zM1074 560V256h72v304z"/>
  </g>
  <g transform="translate(124 300)" filter="url(#shadow)">
    <path d="M0 158h520v128H0z" fill="#f6c33b" stroke="#8a6b18" stroke-width="6"/>
    <path d="M34 184h118l-42 76H-8zM218 184h118l-42 76H176zM402 184h118l-42 76H360z" fill="#001b3e"/>
    <path d="M42 286v94M478 286v94" stroke="#596879" stroke-width="22" stroke-linecap="round"/>
    <rect x="64" y="64" width="154" height="110" rx="18" fill="#fff" stroke="#b6c2ce" stroke-width="5"/>
    <path d="M104 64c9-58 82-58 92 0" fill="#f6c33b" stroke="#8a6b18" stroke-width="6"/>
    <path d="M88 122h106" stroke="#001b3e" stroke-width="8" stroke-linecap="round"/>
    <path d="M306 0c62 0 112 42 112 94v16H194V94C194 42 244 0 306 0z" fill="#f6c33b" stroke="#8a6b18" stroke-width="7"/>
    <path d="M212 110h188" stroke="#001b3e" stroke-width="10" stroke-linecap="round"/>
  </g>
  <g transform="translate(728 270)" filter="url(#shadow)">
    <path d="M96 0h128l64 390H32z" fill="url(#cone)" stroke="#993b16" stroke-width="6"/>
    <path d="M68 242h184M82 164h156M96 86h128" stroke="#ffffff" stroke-width="34"/>
    <rect x="0" y="390" width="320" height="52" rx="20" fill="#001b3e"/>
  </g>
  <g transform="translate(76 76)">
    <rect width="330" height="76" rx="10" fill="#001b3e"/>
    <text x="24" y="35" fill="#fff" font-family="Arial, sans-serif" font-size="20" font-weight="700">SAFETY &amp; PPE</text>
    <text x="24" y="59" fill="#f5d36b" font-family="Arial, sans-serif" font-size="15" font-weight="700">Helmets, first-aid kits, cones, barriers</text>
  </g>
</svg>
